<svg width="6" height="4" viewBox="0 0 6 4" fill="none" xmlns="http://www.w3.org/2000/svg">
<path opacity="1" d="M2.2522 3.71135C2.00587 3.37241 1.78886 3.07867 1.60117 2.83012C1.42522 2.58156 1.25513 2.34996 1.09091 2.1353C1.06698 2.10457 1.03967 2.07058 1.00896 2.03333C0.974073 1.99566 0.936872 1.95621 0.897361 1.91499C0.756598 1.76812 0.621701 1.62124 0.492669 1.47437C0.351906 1.3275 0.234604 1.19192 0.140762 1.06765C0.0469207 0.943372 0 0.84734 0 0.779553C0 0.698141 0 0.623235 0 0.542298C0 0.384128 0.0703812 0.254202 0.211144 0.152521C0.363636 0.0508405 0.527859 0 0.703812 0C2.23863 0 3.76475 0 5.29619 0C5.47214 0 5.63636 0.0508405 5.78886 0.152521C5.92962 0.254202 6 0.384128 6 0.542298C6 0.623235 6 0.698141 6 0.779553C6 0.84734 5.95308 0.943372 5.85924 1.06765C5.7654 1.19192 5.64809 1.3275 5.50733 1.47437C5.3783 1.62124 5.2434 1.76812 5.10264 1.91499C5.06313 1.95621 5.02593 1.99566 4.99104 2.03333C4.96033 2.07058 4.93302 2.10457 4.90909 2.1353C4.74487 2.34996 4.57478 2.58156 4.39883 2.83012C4.21114 3.07867 3.99413 3.37241 3.7478 3.71135C3.34508 4.09923 2.64865 4.09319 2.2522 3.71135Z" fill="white"/>
</svg>
